<svg width="15" height="16" viewBox="0 0 15 16" fill="none" xmlns="http://www.w3.org/2000/svg">
<path fill-rule="evenodd" clip-rule="evenodd" d="M0 8.44949C0 4.30724 3.35775 0.949493 7.5 0.949493C11.6423 0.949493 15 4.30724 15 8.44949C15 12.5917 11.6423 15.9495 7.5 15.9495C3.35775 15.9495 0 12.5917 0 8.44949ZM7.5 2.44949C5.9087 2.44949 4.38258 3.08163 3.25736 4.20685C2.13214 5.33207 1.5 6.85819 1.5 8.44949C1.5 10.0408 2.13214 11.5669 3.25736 12.6921C4.38258 13.8174 5.9087 14.4495 7.5 14.4495C9.0913 14.4495 10.6174 13.8174 11.7426 12.6921C12.8679 11.5669 13.5 10.0408 13.5 8.44949C13.5 6.85819 12.8679 5.33207 11.7426 4.20685C10.6174 3.08163 9.0913 2.44949 7.5 2.44949Z" fill="white"/>
<path fill-rule="evenodd" clip-rule="evenodd" d="M8.25 4.69949C8.25 4.50058 8.17098 4.30982 8.03033 4.16916C7.88968 4.02851 7.69891 3.94949 7.5 3.94949C7.30109 3.94949 7.11032 4.02851 6.96967 4.16916C6.82902 4.30982 6.75 4.50058 6.75 4.69949V7.69949H3.75C3.55109 7.69949 3.36032 7.77851 3.21967 7.91916C3.07902 8.05982 3 8.25058 3 8.44949C3 8.64841 3.07902 8.83917 3.21967 8.97982C3.36032 9.12048 3.55109 9.19949 3.75 9.19949H6.75V12.1995C6.75 12.3984 6.82902 12.5892 6.96967 12.7298C7.11032 12.8705 7.30109 12.9495 7.5 12.9495C7.69891 12.9495 7.88968 12.8705 8.03033 12.7298C8.17098 12.5892 8.25 12.3984 8.25 12.1995V9.19949H11.25C11.4489 9.19949 11.6397 9.12048 11.7803 8.97982C11.921 8.83917 12 8.64841 12 8.44949C12 8.25058 11.921 8.05982 11.7803 7.91916C11.6397 7.77851 11.4489 7.69949 11.25 7.69949H8.25V4.69949Z" fill="white"/>
</svg>
