<svg width="332" height="195" viewBox="0 0 332 195" fill="none" xmlns="http://www.w3.org/2000/svg">
<path d="M93.7314 33.7873L88.5582 34.2652C87.4691 13.0843 73.583 6.76957 66.7761 6.2598H30.5635V62.8441H57.428C72.4576 62.5382 74.5209 50.2273 73.6738 44.1101H79.0286V87.5997H73.6738C73.7464 70.9303 62.8735 68.1648 57.428 68.8657H30.5635V129.847H68.8636C85.3454 130.306 91.3415 109.392 92.2793 98.8783H97.3618L93.7314 136.346H1.52075V131.758C9.79793 133.899 13.6824 128.126 14.59 124.972V18.781C14.59 6.77594 10.1731 4.66677 7.9646 5.11282H0.976196V0.238159H91.0087L93.7314 33.7873Z" fill="#B10C43"/>
<path d="M274.465 58.4589H233.665V62.5197C240.193 62.5197 244.138 66.5806 245.295 68.611L259.833 106.512L278.123 155.436L274.372 165.782C270.095 177.384 264.336 179.576 261.991 179.221C250.885 178.216 248.484 178.802 248.672 179.221C247.359 179.834 244.976 182.509 245.952 188.31C246.927 194.111 252.549 194.981 255.237 194.691C266.118 195.774 273.215 184.12 275.403 178.158L284.595 154.469C292.599 134.681 309.695 91.7966 314.047 78.5698C318.399 65.343 327.178 62.6809 331.024 63.0032V58.4589H295.851V62.5197C308.907 61.4368 309.795 70.8993 308.607 75.7659L304.949 85.628L285.627 136.389L273.34 101.775C270.807 94.5232 265.499 79.4013 264.523 76.9261C263.548 74.4509 263.241 70.3514 263.21 68.611C263.585 62.8098 270.87 62.4553 274.465 63.0032V58.4589Z" fill="#B10C43"/>
<path d="M229.916 59.6088L229.141 82.3228H223.544C224.026 80.3631 223.343 77.4484 222.941 76.236C221.994 70.5204 218.377 67.7739 214.933 64.8048C211.488 61.8356 208.56 62.0583 201.155 61.9099C193.749 61.7614 187.893 67.9224 187.721 69.0358C187.549 70.1493 183.846 77.7206 189.96 81.9516C194.851 85.3365 208.876 90.6364 215.277 92.8633C232.241 99.3954 235.255 110.53 233.016 119.586C230.778 128.642 225.18 130.572 220.358 133.689C216.5 136.183 205.317 135.916 200.207 135.471C190.218 133.095 181.578 133.59 178.507 134.135H176.612L177.215 111.124H182.64C182.365 115.815 184.535 120.6 185.654 122.406C190.649 129.607 196.16 132.205 208.044 132.205C219.927 132.205 223.2 123.52 223.544 122.406C223.888 121.293 225.352 114.241 220.358 110.53C215.363 106.818 205.546 103.849 202.36 102.661C199.174 101.474 189.96 97.9851 183.243 92.8633C176.526 87.7415 176.957 81.0609 177.215 77.7206C177.473 74.3803 178.593 69.0358 186.171 63.0975C192.233 58.3469 203.623 58.1489 208.56 58.6438C219.445 61.1379 227.333 60.3263 229.916 59.6088Z" fill="#B10C43"/>
<g filter="url(#filter0_i_44_188)">
<path fill-rule="evenodd" clip-rule="evenodd" d="M175.12 100.604C175.205 99.548 175.249 98.4804 175.249 97.4025C175.249 75.8945 157.814 58.4589 136.306 58.4589C114.798 58.4589 97.3619 75.8945 97.3619 97.4025C97.3619 118.911 114.798 136.346 136.306 136.346C148.464 136.346 159.322 130.774 166.463 122.044L175.12 136.087V100.604Z" fill="#348E91"/>
</g>
<g filter="url(#filter1_d_44_188)">
<path d="M175.249 97.4026H136.306V136.346C143.939 136.658 152.467 133.003 155.777 131.137C162.787 126.502 165.838 123.137 166.487 122.034L175.249 136.152V97.4026Z" fill="#4440E2"/>
</g>
<g filter="url(#filter2_d_44_188)">
<path d="M136.305 58.459V136.346C130.464 136.152 126.375 136.152 116.834 131.135C109.201 127.121 104.177 119.956 102.619 116.875C100.899 114.311 97.4396 106.827 97.3617 97.4027C97.2839 87.9783 100.802 80.4946 102.571 77.9309C106.504 70.921 113.718 65.5029 116.834 63.6701C126.258 58.7261 133.742 58.136 136.305 58.459Z" fill="#EBDFCC"/>
</g>
<defs>
<filter id="filter0_i_44_188" x="97.3619" y="58.4589" width="77.8873" height="83.8873" filterUnits="userSpaceOnUse" color-interpolation-filters="sRGB">
<feFlood flood-opacity="0" result="BackgroundImageFix"/>
<feBlend mode="normal" in="SourceGraphic" in2="BackgroundImageFix" result="shape"/>
<feColorMatrix in="SourceAlpha" type="matrix" values="0 0 0 0 0 0 0 0 0 0 0 0 0 0 0 0 0 0 127 0" result="hardAlpha"/>
<feOffset dy="6"/>
<feGaussianBlur stdDeviation="3"/>
<feComposite in2="hardAlpha" operator="arithmetic" k2="-1" k3="1"/>
<feColorMatrix type="matrix" values="0 0 0 0 0 0 0 0 0 0 0 0 0 0 0 0 0 0 0.25 0"/>
<feBlend mode="normal" in2="shape" result="effect1_innerShadow_44_188"/>
</filter>
<filter id="filter1_d_44_188" x="130.306" y="85.4026" width="50.9437" height="50.9624" filterUnits="userSpaceOnUse" color-interpolation-filters="sRGB">
<feFlood flood-opacity="0" result="BackgroundImageFix"/>
<feColorMatrix in="SourceAlpha" type="matrix" values="0 0 0 0 0 0 0 0 0 0 0 0 0 0 0 0 0 0 127 0" result="hardAlpha"/>
<feOffset dy="-6"/>
<feGaussianBlur stdDeviation="3"/>
<feComposite in2="hardAlpha" operator="out"/>
<feColorMatrix type="matrix" values="0 0 0 0 0 0 0 0 0 0 0 0 0 0 0 0 0 0 0.25 0"/>
<feBlend mode="normal" in2="BackgroundImageFix" result="effect1_dropShadow_44_188"/>
<feBlend mode="normal" in="SourceGraphic" in2="effect1_dropShadow_44_188" result="shape"/>
</filter>
<filter id="filter2_d_44_188" x="97.3605" y="58.3865" width="50.9449" height="89.9598" filterUnits="userSpaceOnUse" color-interpolation-filters="sRGB">
<feFlood flood-opacity="0" result="BackgroundImageFix"/>
<feColorMatrix in="SourceAlpha" type="matrix" values="0 0 0 0 0 0 0 0 0 0 0 0 0 0 0 0 0 0 127 0" result="hardAlpha"/>
<feOffset dx="6" dy="6"/>
<feGaussianBlur stdDeviation="3"/>
<feComposite in2="hardAlpha" operator="out"/>
<feColorMatrix type="matrix" values="0 0 0 0 0 0 0 0 0 0 0 0 0 0 0 0 0 0 0.25 0"/>
<feBlend mode="normal" in2="BackgroundImageFix" result="effect1_dropShadow_44_188"/>
<feBlend mode="normal" in="SourceGraphic" in2="effect1_dropShadow_44_188" result="shape"/>
</filter>
</defs>
</svg>
