<svg width="17" height="17" viewBox="0 0 17 17" fill="none" xmlns="http://www.w3.org/2000/svg">
<path d="M3.64701 4.47903H2.76467C2.29665 4.47903 1.8478 4.66495 1.51686 4.99589C1.18592 5.32684 1 5.77569 1 6.24371V14.1847C1 14.6528 1.18592 15.1016 1.51686 15.4325C1.8478 15.7635 2.29665 15.9494 2.76467 15.9494H10.7057C11.1737 15.9494 11.6226 15.7635 11.9535 15.4325C12.2845 15.1016 12.4704 14.6528 12.4704 14.1847V13.3024" stroke="white" stroke-width="1.33333" stroke-linecap="round" stroke-linejoin="round"/>
<path d="M11.5882 2.71437L14.2352 5.36138M15.4573 4.11287C15.8048 3.76537 16 3.29405 16 2.8026C16 2.31115 15.8048 1.83984 15.4573 1.49233C15.1098 1.14483 14.6384 0.9496 14.147 0.9496C13.6555 0.9496 13.1842 1.14483 12.8367 1.49233L5.41187 8.89072V11.5377H8.05887L15.4573 4.11287Z" stroke="white" stroke-width="1.33333" stroke-linecap="round" stroke-linejoin="round"/>
</svg>
