<svg width="11" height="12" viewBox="0 0 11 12" fill="none" xmlns="http://www.w3.org/2000/svg">
<path id="Vector" d="M6.74983 5.89821V10.8225C6.77482 11.01 6.71233 11.21 6.5686 11.3412C6.51079 11.3991 6.44212 11.4451 6.36652 11.4765C6.29092 11.5078 6.20988 11.524 6.12804 11.524C6.04619 11.524 5.96515 11.5078 5.88956 11.4765C5.81396 11.4451 5.74529 11.3991 5.68747 11.3412L4.4314 10.0851C4.36324 10.0185 4.31142 9.93701 4.27998 9.84703C4.24854 9.75706 4.23834 9.66103 4.25017 9.56645V5.89821H4.23143L0.631924 1.28635C0.530443 1.15607 0.484653 0.990924 0.504559 0.826991C0.524465 0.663059 0.608449 0.51367 0.738159 0.411468C0.856893 0.32398 0.988125 0.273987 1.12561 0.273987H9.87439C10.0119 0.273987 10.1431 0.32398 10.2618 0.411468C10.3916 0.51367 10.4755 0.663059 10.4954 0.826991C10.5153 0.990924 10.4696 1.15607 10.3681 1.28635L6.76857 5.89821H6.74983Z" fill="#1B2B83"/>
</svg>
