<svg width="133" height="72" viewBox="0 0 133 72" fill="none" xmlns="http://www.w3.org/2000/svg">
<path d="M34.6441 13.3244L32.7119 13.5C32.3051 5.7191 27.1186 3.39934 24.5763 3.21208H11.0508V23.9986H21.0847C26.6983 23.8862 27.4689 19.3638 27.1525 17.1166H29.1525V33.0927H27.1525C27.1797 26.9691 23.1186 25.9532 21.0847 26.2107H11.0508V48.6124H25.3559C31.5119 48.7809 33.7514 41.0983 34.1017 37.236H36L34.6441 51H0.20339V49.3146C3.29492 50.1011 4.74576 47.9803 5.08475 46.8216V7.8118C5.08475 3.40169 3.43503 2.62687 2.61017 2.79073H0V1H33.6271L34.6441 13.3244Z" fill="#B10C43"/>
<g filter="url(#filter0_i_9_282)">
<path fill-rule="evenodd" clip-rule="evenodd" d="M68.9157 37.2358C68.9485 36.8316 68.9651 36.4229 68.9651 36.0102C68.9651 27.7357 62.2573 21.0279 53.9828 21.0279C45.7083 21.0279 39.0005 27.7357 39.0005 36.0102C39.0005 44.2847 45.7083 50.9925 53.9828 50.9925C58.6606 50.9925 62.8377 48.8488 65.5852 45.4902L68.9157 50.8931V37.2358Z" fill="#348E91"/>
</g>
<g filter="url(#filter1_d_9_282)">
<path d="M68.9654 36.0104H53.983V50.9928C56.9196 51.1126 60.2007 49.7066 61.4742 48.9886C64.171 47.2056 65.3446 45.9111 65.5943 45.4868L68.9654 50.9179V36.0104Z" fill="#4440E2"/>
</g>
<g filter="url(#filter2_d_9_282)">
<path d="M53.9828 21.0279V50.9926C51.7355 50.9176 50.1623 50.9177 46.4917 48.9875C43.5551 47.4434 41.6224 44.6867 41.0231 43.5014C40.3614 42.5151 39.0305 39.636 39.0005 36.0102C38.9705 32.3845 40.3239 29.5054 41.0044 28.5191C42.5176 25.8223 45.2931 23.7378 46.4917 23.0327C50.1174 21.1307 52.9965 20.9036 53.9828 21.0279Z" fill="#EBDFCC"/>
</g>
<path d="M92.5546 22.4463L92.2558 31.2612H90.0974C90.2833 30.5007 90.0199 29.3695 89.8649 28.899C89.4997 26.6809 88.105 25.615 86.7767 24.4627C85.4485 23.3105 84.3195 23.3969 81.4638 23.3393C78.608 23.2817 76.35 25.6726 76.2836 26.1047C76.2172 26.5368 74.7893 29.4751 77.147 31.1171C79.0331 32.4307 84.4412 34.4875 86.9096 35.3517C93.4512 37.8867 94.6134 42.2078 93.75 45.7222C92.8867 49.2367 90.7283 49.9856 88.8687 51.1955C87.3811 52.1634 83.0687 52.0597 81.0985 51.8869C77.2466 50.9651 73.9149 51.1571 72.7305 51.3684H72L72.2324 42.4382H74.3244C74.2182 44.2588 75.055 46.1159 75.4866 46.8169C77.4126 49.6112 79.5378 50.6194 84.1203 50.6194C88.7027 50.6194 89.9645 47.249 90.0974 46.8169C90.2302 46.3848 90.7947 43.6481 88.8687 42.2078C86.9428 40.7674 83.1573 39.6152 81.9286 39.1543C80.7 38.6933 77.147 37.3394 74.5569 35.3517C71.9668 33.3641 72.1328 30.7714 72.2324 29.4751C72.3321 28.1788 72.7637 26.1047 75.6859 23.8002C78.0236 21.9565 82.4157 21.8797 84.3195 22.0718C88.5168 23.0397 91.5584 22.7247 92.5546 22.4463Z" fill="#B10C43"/>
<path d="M111.967 22H97V23.4896C99.3947 23.4896 100.842 24.9793 101.266 25.7241L106.6 39.6275L113.309 57.5742L111.933 61.3693C110.364 65.6254 108.251 66.4293 107.391 66.2993C103.317 65.9304 102.436 66.1456 102.505 66.2993C102.023 66.5239 101.149 67.5052 101.507 69.6333C101.865 71.7613 103.927 72.0805 104.914 71.9741C108.905 72.3714 111.508 68.0963 112.311 65.9091L115.683 57.2195C118.619 49.9604 124.89 34.2293 126.487 29.3773C128.083 24.5253 131.304 23.5488 132.714 23.667V22H119.812V23.4896C124.601 23.0924 124.927 26.5635 124.491 28.3487L123.149 31.9665L116.061 50.587L111.554 37.8896C110.625 35.2295 108.678 29.6823 108.32 28.7743C107.962 27.8664 107.85 26.3625 107.838 25.7241C107.976 23.5961 110.648 23.466 111.967 23.667V22Z" fill="#B10C43"/>
<defs>
<filter id="filter0_i_9_282" x="39.0005" y="21.0279" width="29.9646" height="35.9647" filterUnits="userSpaceOnUse" color-interpolation-filters="sRGB">
<feFlood flood-opacity="0" result="BackgroundImageFix"/>
<feBlend mode="normal" in="SourceGraphic" in2="BackgroundImageFix" result="shape"/>
<feColorMatrix in="SourceAlpha" type="matrix" values="0 0 0 0 0 0 0 0 0 0 0 0 0 0 0 0 0 0 127 0" result="hardAlpha"/>
<feOffset dy="6"/>
<feGaussianBlur stdDeviation="3"/>
<feComposite in2="hardAlpha" operator="arithmetic" k2="-1" k3="1"/>
<feColorMatrix type="matrix" values="0 0 0 0 0 0 0 0 0 0 0 0 0 0 0 0 0 0 0.25 0"/>
<feBlend mode="normal" in2="shape" result="effect1_innerShadow_9_282"/>
</filter>
<filter id="filter1_d_9_282" x="47.983" y="24.0104" width="26.9823" height="26.9895" filterUnits="userSpaceOnUse" color-interpolation-filters="sRGB">
<feFlood flood-opacity="0" result="BackgroundImageFix"/>
<feColorMatrix in="SourceAlpha" type="matrix" values="0 0 0 0 0 0 0 0 0 0 0 0 0 0 0 0 0 0 127 0" result="hardAlpha"/>
<feOffset dy="-6"/>
<feGaussianBlur stdDeviation="3"/>
<feComposite in2="hardAlpha" operator="out"/>
<feColorMatrix type="matrix" values="0 0 0 0 0 0 0 0 0 0 0 0 0 0 0 0 0 0 0.25 0"/>
<feBlend mode="normal" in2="BackgroundImageFix" result="effect1_dropShadow_9_282"/>
<feBlend mode="normal" in="SourceGraphic" in2="effect1_dropShadow_9_282" result="shape"/>
</filter>
<filter id="filter2_d_9_282" x="39" y="21" width="26.9828" height="41.9926" filterUnits="userSpaceOnUse" color-interpolation-filters="sRGB">
<feFlood flood-opacity="0" result="BackgroundImageFix"/>
<feColorMatrix in="SourceAlpha" type="matrix" values="0 0 0 0 0 0 0 0 0 0 0 0 0 0 0 0 0 0 127 0" result="hardAlpha"/>
<feOffset dx="6" dy="6"/>
<feGaussianBlur stdDeviation="3"/>
<feComposite in2="hardAlpha" operator="out"/>
<feColorMatrix type="matrix" values="0 0 0 0 0 0 0 0 0 0 0 0 0 0 0 0 0 0 0.25 0"/>
<feBlend mode="normal" in2="BackgroundImageFix" result="effect1_dropShadow_9_282"/>
<feBlend mode="normal" in="SourceGraphic" in2="effect1_dropShadow_9_282" result="shape"/>
</filter>
</defs>
</svg>
