<svg width="24" height="23" viewBox="0 0 24 23" fill="none" xmlns="http://www.w3.org/2000/svg">
<path d="M5.28438 3.12259C5.28438 3.95075 5.00601 4.74499 4.5105 5.33059C4.01499 5.91619 3.34294 6.24518 2.64219 6.24518C1.94144 6.24518 1.26939 5.91619 0.77388 5.33059C0.278373 4.74499 0 3.95075 0 3.12259C0 2.29443 0.278373 1.50018 0.77388 0.914584C1.26939 0.328986 1.94144 0 2.64219 0C3.34294 0 4.01499 0.328986 4.5105 0.914584C5.00601 1.50018 5.28438 2.29443 5.28438 3.12259ZM5.28438 11.4495C5.28438 12.2777 5.00601 13.0719 4.5105 13.6575C4.01499 14.2431 3.34294 14.5721 2.64219 14.5721C1.94144 14.5721 1.26939 14.2431 0.77388 13.6575C0.278373 13.0719 0 12.2777 0 11.4495C0 10.6213 0.278373 9.82708 0.77388 9.24149C1.26939 8.65589 1.94144 8.3269 2.64219 8.3269C3.34294 8.3269 4.01499 8.65589 4.5105 9.24149C5.00601 9.82708 5.28438 10.6213 5.28438 11.4495ZM5.28438 19.7764C5.28438 20.6046 5.00601 21.3988 4.5105 21.9844C4.01499 22.57 3.34294 22.899 2.64219 22.899C1.94144 22.899 1.26939 22.57 0.77388 21.9844C0.278373 21.3988 0 20.6046 0 19.7764C0 18.9482 0.278373 18.154 0.77388 17.5684C1.26939 16.9828 1.94144 16.6538 2.64219 16.6538C3.34294 16.6538 4.01499 16.9828 4.5105 17.5684C5.00601 18.154 5.28438 18.9482 5.28438 19.7764Z" fill="#B10C43"/>
<path fill-rule="evenodd" clip-rule="evenodd" d="M8.14697 3.1226C8.14697 2.5705 8.33255 2.041 8.66289 1.6506C8.99323 1.2602 9.44126 1.04088 9.90843 1.04088H22.2387C22.7058 1.04088 23.1539 1.2602 23.4842 1.6506C23.8145 2.041 24.0001 2.5705 24.0001 3.1226C24.0001 3.67471 23.8145 4.20421 23.4842 4.59461C23.1539 4.985 22.7058 5.20433 22.2387 5.20433H9.90843C9.44126 5.20433 8.99323 4.985 8.66289 4.59461C8.33255 4.20421 8.14697 3.67471 8.14697 3.1226ZM8.14697 11.4495C8.14697 10.8974 8.33255 10.3679 8.66289 9.9775C8.99323 9.5871 9.44126 9.36778 9.90843 9.36778H22.2387C22.7058 9.36778 23.1539 9.5871 23.4842 9.9775C23.8145 10.3679 24.0001 10.8974 24.0001 11.4495C24.0001 12.0016 23.8145 12.5311 23.4842 12.9215C23.1539 13.3119 22.7058 13.5312 22.2387 13.5312H9.90843C9.44126 13.5312 8.99323 13.3119 8.66289 12.9215C8.33255 12.5311 8.14697 12.0016 8.14697 11.4495ZM8.14697 19.7764C8.14697 19.2243 8.33255 18.6948 8.66289 18.3044C8.99323 17.914 9.44126 17.6947 9.90843 17.6947H22.2387C22.7058 17.6947 23.1539 17.914 23.4842 18.3044C23.8145 18.6948 24.0001 19.2243 24.0001 19.7764C24.0001 20.3285 23.8145 20.858 23.4842 21.2484C23.1539 21.6388 22.7058 21.8581 22.2387 21.8581H9.90843C9.44126 21.8581 8.99323 21.6388 8.66289 21.2484C8.33255 20.858 8.14697 20.3285 8.14697 19.7764Z" fill="#B10C43"/>
</svg>
