<svg width="14" height="14" viewBox="0 0 14 14" fill="none" xmlns="http://www.w3.org/2000/svg">
<path fill-rule="evenodd" clip-rule="evenodd" d="M2.47314 6.25072C2.47314 3.92723 4.33064 2.06458 6.59632 2.06458C8.86201 2.06458 10.7195 3.92723 10.7195 6.25072C10.7195 7.37524 10.2844 8.39181 9.57855 9.14152C9.55555 9.16051 9.5332 9.18068 9.51157 9.20205C9.48416 9.22912 9.45865 9.25739 9.43503 9.28669C8.69399 10.0005 7.69297 10.4369 6.59632 10.4369C4.33064 10.4369 2.47314 8.57422 2.47314 6.25072ZM10.1605 11.2818C9.15793 12.0084 7.92822 12.4369 6.59632 12.4369C3.2031 12.4369 0.473145 9.65569 0.473145 6.25072C0.473145 2.84576 3.2031 0.0645752 6.59632 0.0645752C9.98954 0.0645752 12.7195 2.84576 12.7195 6.25072C12.7195 7.59599 12.2934 8.84389 11.5685 9.86137L13.7115 12.0307C14.0996 12.4236 14.0958 13.0567 13.7029 13.4448C13.3099 13.833 12.6768 13.8291 12.2887 13.4362L10.1605 11.2818Z" fill="#4C3B4D"/>
</svg>
