<svg width="20" height="25" viewBox="0 0 20 25" fill="none" xmlns="http://www.w3.org/2000/svg">
<path id="Vector" d="M20 20.3089C20 21.4443 19.6745 22.4182 19.0234 23.2307C18.3724 24.0432 17.5885 24.4495 16.6719 24.4495H3.32812C2.41146 24.4495 1.6276 24.0432 0.976562 23.2307C0.325521 22.4182 0 21.4443 0 20.3089C0 19.4235 0.0442708 18.5875 0.132812 17.8011C0.221354 17.0146 0.385417 16.2229 0.625 15.4261C0.864583 14.6292 1.16927 13.9469 1.53906 13.3792C1.90885 12.8115 2.39844 12.3479 3.00781 11.9886C3.61719 11.6292 4.31771 11.4495 5.10938 11.4495C6.47396 12.7828 8.10417 13.4495 10 13.4495C11.8958 13.4495 13.526 12.7828 14.8906 11.4495C15.6823 11.4495 16.3828 11.6292 16.9922 11.9886C17.6016 12.3479 18.0911 12.8115 18.4609 13.3792C18.8307 13.9469 19.1354 14.6292 19.375 15.4261C19.6146 16.2229 19.7786 17.0146 19.8672 17.8011C19.9557 18.5875 20 19.4235 20 20.3089ZM16 6.44949C16 8.10574 15.4141 9.51981 14.2422 10.6917C13.0703 11.8636 11.6562 12.4495 10 12.4495C8.34375 12.4495 6.92969 11.8636 5.75781 10.6917C4.58594 9.51981 4 8.10574 4 6.44949C4 4.79324 4.58594 3.37918 5.75781 2.20731C6.92969 1.03543 8.34375 0.449493 10 0.449493C11.6562 0.449493 13.0703 1.03543 14.2422 2.20731C15.4141 3.37918 16 4.79324 16 6.44949Z" fill="#021B2B"/>
</svg>
